<svg xmlns="http://www.w3.org/2000/svg" viewBox="0 0 64 64" role="img" aria-label="CRD">
  <defs>
    <linearGradient id="bg" x1="10" x2="54" y1="8" y2="58" gradientUnits="userSpaceOnUse">
      <stop stop-color="#2dd4bf"/>
      <stop offset=".48" stop-color="#5b6ee1"/>
      <stop offset="1" stop-color="#f97316"/>
    </linearGradient>
  </defs>
  <rect width="60" height="60" x="2" y="2" fill="#12151f" rx="13"/>
  <path fill="url(#bg)" d="M32 8 54 20.7v22.6L32 56 10 43.3V20.7z"/>
  <path fill="#12151f" d="M32 14.7 48.2 24v16L32 49.3 15.8 40V24z"/>
  <path fill="#f8fafc" d="M22.8 37.7c-2.9 0-5-2.1-5-5.7s2.1-5.7 5-5.7c1.9 0 3.3.7 4.2 1.9l-1.9 2c-.5-.7-1.2-1.1-2.1-1.1-1.3 0-2.1 1-2.1 2.9s.8 2.9 2.1 2.9c.9 0 1.6-.4 2.1-1.1l1.9 2c-.9 1.2-2.3 1.9-4.2 1.9Zm5.8-.2v-11h4.3c2.8 0 4.4 1.3 4.4 3.6 0 1.5-.7 2.6-1.9 3.1l2.3 4.3h-3.3l-1.9-3.7h-.8v3.7zm3.1-6.2h1c1 0 1.5-.4 1.5-1.2s-.5-1.2-1.5-1.2h-1zm7.3 6.2v-11h4.1c3.3 0 5.2 2 5.2 5.5s-1.9 5.5-5.2 5.5zm3.1-2.7h.8c1.5 0 2.3-.9 2.3-2.8s-.8-2.8-2.3-2.8h-.8z"/>
</svg>
